<svg version="1.1" viewBox="0 0 63.903 55.383" xmlns="http://www.w3.org/2000/svg">
<path d="m61.407 11.017c-1.6644-1.664-3.6719-2.4962-6.0241-2.4962h-7.4553l-1.6971-4.5262c-0.4218-1.0871-1.1925-2.0247-2.3136-2.8127-1.1207-0.7877-2.2688-1.1818-3.4449-1.1818h-17.041c-1.176 0-2.3244 0.39414-3.445 1.1818-1.1207 0.78805-1.8915 1.7257-2.3131 2.8127l-1.6973 4.5262h-7.4554c-2.3524 0-4.36 0.83223-6.0244 2.4962-1.664 1.6642-2.496 3.6721-2.496 6.0242v29.822c0 2.3522 0.832 4.3604 2.496 6.024 1.6644 1.6644 3.6721 2.4966 6.0244 2.4966h46.862c2.3521 0 4.3596-0.8322 6.024-2.4966 1.6639-1.6636 2.4962-3.6718 2.4962-6.024v-29.822c4e-4 -2.3521-0.8318-4.36-2.4953-6.0242zm-18.922 31.469c-2.9178 2.9179-6.4288 4.3772-10.534 4.3772s-7.616-1.4593-10.534-4.3772c-2.918-2.9174-4.3767-6.4292-4.3767-10.534 0-4.1056 1.4592-7.6163 4.3767-10.534 2.9177-2.918 6.4289-4.3767 10.534-4.3767s7.6162 1.4591 10.534 4.3767c2.9179 2.9177 4.3769 6.4287 4.3769 10.534 0 4.1043-1.4589 7.6157-4.3769 10.534zm-17.308-17.306c1.875-1.8752 4.1328-2.8127 6.7733-2.8127 2.6402 0 4.8983 0.9376 6.7732 2.8127 1.875 1.8751 2.8126 4.1325 2.8126 6.7735 0 2.6402-0.9376 4.8978-2.8126 6.7728-1.875 1.8747-4.133 2.8122-6.7732 2.8122-2.6407 0-4.8983-0.9375-6.7733-2.8122-1.875-1.875-2.8125-4.1327-2.8125-6.7728 0-2.6411 0.9375-4.8985 2.8125-6.7735z" fill="#FFFFFF"/>
</svg>
